<svg width="41" height="41" viewBox="0 0 41 41" fill="none" xmlns="http://www.w3.org/2000/svg">
<rect x="1.5" y="1.5" width="38" height="38" rx="19" fill="#EBEBF4"/>
<rect x="1.5" y="1.5" width="38" height="38" rx="19" stroke="#8986BB" stroke-width="2"/>
<path d="M22.5 13.5C22.5 12.9696 22.2892 12.4609 21.9142 12.0858C21.5391 11.7107 21.0304 11.5 20.5 11.5C19.9695 11.5 19.4608 11.7107 19.0857 12.0858C18.7107 12.4609 18.5 12.9696 18.5 13.5M27.76 18.196L29.145 27.196C29.1888 27.4808 29.1705 27.7718 29.0914 28.0489C29.0123 28.3261 28.8742 28.5828 28.6867 28.8016C28.4991 29.0204 28.2665 29.1961 28.0047 29.3167C27.7429 29.4372 27.4582 29.4997 27.17 29.5H13.83C13.5416 29.5 13.2566 29.4377 12.9946 29.3173C12.7326 29.1969 12.4997 29.0212 12.3119 28.8024C12.1241 28.5836 11.9859 28.3267 11.9067 28.0494C11.8274 27.7721 11.8091 27.481 11.853 27.196L13.238 18.196C13.3106 17.7236 13.55 17.2928 13.9129 16.9817C14.2757 16.6706 14.738 16.4997 15.216 16.5H25.784C26.2617 16.4999 26.7238 16.6709 27.0864 16.982C27.449 17.2931 27.6873 17.7238 27.76 18.196Z" stroke="#8986BB" stroke-width="2" stroke-linecap="round" stroke-linejoin="round"/>
</svg>
