<svg width="25" height="25" viewBox="0 0 25 25" fill="none" xmlns="http://www.w3.org/2000/svg">
<path d="M18.634 11.5C19.215 16.875 21.5 18.5 21.5 18.5H3.5C3.5 18.5 6.5 16.367 6.5 8.9C6.5 7.203 7.132 5.575 8.257 4.375C9.383 3.175 10.91 2.5 12.5 2.5C12.837 2.5 13.172 2.53 13.5 2.59M14.23 21.5C14.0544 21.8033 13.8021 22.0552 13.4985 22.2302C13.1948 22.4053 12.8505 22.4974 12.5 22.4974C12.1495 22.4974 11.8052 22.4053 11.5015 22.2302C11.1979 22.0552 10.9456 21.8033 10.77 21.5" stroke="#4C4C4C" stroke-width="1.5" stroke-linecap="round" stroke-linejoin="round"/>
<path d="M21.6213 7.62132C21.0587 8.18393 20.2956 8.5 19.5 8.5C18.7044 8.5 17.9413 8.18393 17.3787 7.62132C16.8161 7.05871 16.5 6.29565 16.5 5.5C16.5 4.70435 16.8161 3.94129 17.3787 3.37868C17.9413 2.81607 18.7044 2.5 19.5 2.5C20.2956 2.5 21.0587 2.81607 21.6213 3.37868C22.1839 3.94129 22.5 4.70435 22.5 5.5C22.5 6.29565 22.1839 7.05871 21.6213 7.62132Z" fill="#ED3939" stroke="#ED3939" stroke-width="1.5" stroke-linecap="round" stroke-linejoin="round"/>
</svg>
