<svg width="25" height="24" viewBox="0 0 25 24" fill="none" xmlns="http://www.w3.org/2000/svg">
<path d="M4.5 19V5C4.5 4.46957 4.71071 3.96086 5.08579 3.58579C5.46086 3.21071 5.96957 3 6.5 3H19.9C20.0591 3 20.2117 3.06321 20.3243 3.17574C20.4368 3.28826 20.5 3.44087 20.5 3.6V16.714M6.5 17H20.5M6.5 21H20.5" stroke="#4C4C4C" stroke-width="1.5" stroke-linecap="round"/>
<path d="M6.5 21C5.96957 21 5.46086 20.7893 5.08579 20.4142C4.71071 20.0391 4.5 19.5304 4.5 19C4.5 18.4696 4.71071 17.9609 5.08579 17.5858C5.46086 17.2107 5.96957 17 6.5 17" stroke="#4C4C4C" stroke-width="1.5" stroke-linecap="round" stroke-linejoin="round"/>
<path d="M9.5 7H15.5" stroke="#4C4C4C" stroke-width="1.5" stroke-linecap="round"/>
</svg>
