<svg width="20" height="21" viewBox="0 0 20 21" fill="none" xmlns="http://www.w3.org/2000/svg">
<path d="M7.5 18H12.5M7.5 18V13.8333M7.5 18H3C2.86739 18 2.74021 17.9473 2.64645 17.8536C2.55268 17.7598 2.5 17.6326 2.5 17.5V14.3333C2.5 14.2007 2.55268 14.0735 2.64645 13.9798C2.74021 13.886 2.86739 13.8333 3 13.8333H7.5M12.5 18V8M12.5 18H17C17.1326 18 17.2598 17.9473 17.3536 17.8536C17.4473 17.7598 17.5 17.6326 17.5 17.5V3.5C17.5 3.36739 17.4473 3.24021 17.3536 3.14645C17.2598 3.05268 17.1326 3 17 3H13C12.8674 3 12.7402 3.05268 12.6464 3.14645C12.5527 3.24021 12.5 3.36739 12.5 3.5V8M7.5 13.8333V8.5C7.5 8.36739 7.55268 8.24021 7.64645 8.14645C7.74021 8.05268 7.86739 8 8 8H12.5" stroke="#4C4C4C" stroke-width="1.5"/>
</svg>
