<svg width="20" height="21" viewBox="0 0 20 21" fill="none" xmlns="http://www.w3.org/2000/svg">
<path d="M2.5 17.4083V4.66667C2.5 4.22464 2.67559 3.80072 2.98816 3.48816C3.30072 3.17559 3.72464 3 4.16667 3H15.8333C16.2754 3 16.6993 3.17559 17.0118 3.48816C17.3244 3.80072 17.5 4.22464 17.5 4.66667V13C17.5 13.442 17.3244 13.866 17.0118 14.1785C16.6993 14.4911 16.2754 14.6667 15.8333 14.6667H6.63417C6.38436 14.6667 6.13776 14.7229 5.91259 14.8311C5.68743 14.9392 5.48946 15.0967 5.33333 15.2917L3.39083 17.72C3.32619 17.801 3.23797 17.8599 3.13837 17.8886C3.03877 17.9173 2.93272 17.9143 2.83488 17.8801C2.73705 17.8459 2.65227 17.7821 2.59228 17.6976C2.53228 17.6131 2.50004 17.512 2.5 17.4083Z" stroke="#4C4C4C" stroke-width="1.5"/>
</svg>
