<svg width="19" height="18" viewBox="0 0 19 18" fill="none" xmlns="http://www.w3.org/2000/svg">
<path d="M3.5 2.25H15.5C15.6989 2.25 15.8897 2.32902 16.0303 2.46967C16.171 2.61032 16.25 2.80109 16.25 3V4.1895C16.25 4.3884 16.1709 4.57913 16.0303 4.71975L11.219 9.53025C11.0786 9.67099 10.9998 9.86171 11 10.0605V14.7892C11 14.9033 10.974 15.0158 10.924 15.1182C10.874 15.2207 10.8013 15.3104 10.7114 15.3805C10.6215 15.4506 10.5169 15.4994 10.4053 15.523C10.2938 15.5466 10.1783 15.5445 10.0677 15.5167L8.56775 15.1417C8.40557 15.1011 8.26161 15.0075 8.15874 14.8757C8.05588 14.7438 8 14.5814 8 14.4142V10.0605C7.99996 9.8616 7.92091 9.67087 7.78025 9.53025L2.969 4.71975C2.82861 4.57901 2.74984 4.38829 2.75 4.1895V3C2.75 2.80109 2.82902 2.61032 2.96967 2.46967C3.11032 2.32902 3.30109 2.25 3.5 2.25Z" stroke="#B3B3B3" stroke-width="1.5" stroke-linecap="round" stroke-linejoin="round"/>
</svg>
