<svg width="21" height="20" viewBox="0 0 21 20" fill="none" xmlns="http://www.w3.org/2000/svg">
<g clip-path="url(#clip0_3413_18317)">
<path d="M20.4905 10.1871C20.4905 9.36767 20.4224 8.76973 20.2752 8.14966H10.6992V11.848H16.3201C16.2068 12.7671 15.5948 14.1512 14.2349 15.0813L14.2159 15.2051L17.2436 17.4969L17.4534 17.5174C19.3798 15.7789 20.4905 13.221 20.4905 10.1871Z" fill="#4285F4"/>
<path d="M10.6992 19.9312C13.453 19.9312 15.7648 19.0453 17.4534 17.5173L14.2349 15.0812C13.3737 15.6681 12.2177 16.0777 10.6992 16.0777C8.00211 16.0777 5.71297 14.3393 4.89695 11.9365L4.77734 11.9464L1.62906 14.3271L1.58789 14.439C3.26508 17.6944 6.71016 19.9312 10.6992 19.9312Z" fill="#34A853"/>
<path d="M4.89695 11.9366C4.68164 11.3165 4.55703 10.6521 4.55703 9.96559C4.55703 9.27902 4.68164 8.61467 4.88562 7.9946L4.87992 7.86253L1.69219 5.4436L1.58789 5.49208C0.896641 6.84299 0.5 8.36002 0.5 9.96559C0.5 11.5712 0.896641 13.0881 1.58789 14.439L4.89695 11.9366Z" fill="#FBBC05"/>
<path d="M10.6992 3.85336C12.6144 3.85336 13.9062 4.66168 14.6429 5.33718L17.5213 2.59107C15.7535 0.985496 13.453 0 10.6992 0C6.71016 0 3.26508 2.23672 1.58789 5.49214L4.88563 7.99466C5.71297 5.59183 8.00211 3.85336 10.6992 3.85336Z" fill="#EB4335"/>
</g>
<defs>
<clipPath id="clip0_3413_18317">
<rect width="20" height="20" fill="white" transform="translate(0.5)"/>
</clipPath>
</defs>
</svg>
    