<svg width="15" height="16" viewBox="0 0 15 16" fill="none" xmlns="http://www.w3.org/2000/svg">
<path d="M6.75 9.875C6.75 10.91 8.42925 11.75 10.5 11.75C12.5707 11.75 14.25 10.91 14.25 9.875M0.75 6.125C0.75 7.16 2.42925 8 4.5 8C5.3445 8 6.12375 7.8605 6.75 7.625M0.75 8.75C0.75 9.785 2.42925 10.625 4.5 10.625C5.3445 10.625 6.123 10.4855 6.75 10.25M10.5 8.75C8.42925 8.75 6.75 7.91 6.75 6.875C6.75 5.84 8.42925 5 10.5 5C12.5707 5 14.25 5.84 14.25 6.875C14.25 7.91 12.5707 8.75 10.5 8.75Z" stroke="#4C4C4C" stroke-width="1.5" stroke-linecap="round" stroke-linejoin="round"/>
<path d="M0.75 3.125V11.375C0.75 12.41 2.42925 13.25 4.5 13.25C5.3445 13.25 6.123 13.1105 6.75 12.875M6.75 12.875V6.875M6.75 12.875C6.75 13.91 8.42925 14.75 10.5 14.75C12.5707 14.75 14.25 13.91 14.25 12.875V6.875M8.25 5.375V3.125" stroke="#4C4C4C" stroke-width="1.5" stroke-linecap="round" stroke-linejoin="round"/>
<path d="M4.5 5C2.42925 5 0.75 4.16 0.75 3.125C0.75 2.09 2.42925 1.25 4.5 1.25C6.57075 1.25 8.25 2.09 8.25 3.125C8.25 4.16 6.57075 5 4.5 5Z" stroke="#4C4C4C" stroke-width="1.5" stroke-linecap="round" stroke-linejoin="round"/>
</svg>
