<svg width="19" height="18" viewBox="0 0 19 18" fill="none" xmlns="http://www.w3.org/2000/svg">
<path d="M6.5 7.5H12.5M6.5 13.5H12.5M6.5 10.5H9.5M3.5 16.05V1.95C3.5 1.83065 3.54741 1.71619 3.6318 1.6318C3.71619 1.54741 3.83065 1.5 3.95 1.5H12.689C12.8083 1.50011 12.9227 1.54758 13.007 1.632L15.368 3.993C15.41 4.03492 15.4432 4.08474 15.4659 4.13957C15.4886 4.1944 15.5001 4.25317 15.5 4.3125V16.05C15.5 16.1091 15.4884 16.1676 15.4657 16.2222C15.4431 16.2768 15.41 16.3264 15.3682 16.3682C15.3264 16.41 15.2768 16.4431 15.2222 16.4657C15.1676 16.4884 15.1091 16.5 15.05 16.5H3.95C3.89091 16.5 3.83239 16.4884 3.77779 16.4657C3.7232 16.4431 3.67359 16.41 3.6318 16.3682C3.59002 16.3264 3.55687 16.2768 3.53425 16.2222C3.51164 16.1676 3.5 16.1091 3.5 16.05Z" stroke="#4C4C4C" stroke-width="1.5" stroke-linecap="round" stroke-linejoin="round"/>
<path d="M12.5 1.5V4.05C12.5 4.16935 12.5474 4.28381 12.6318 4.3682C12.7162 4.45259 12.8307 4.5 12.95 4.5H15.5" stroke="#4C4C4C" stroke-width="1.5" stroke-linecap="round" stroke-linejoin="round"/>
</svg>
