<svg width="21" height="20" viewBox="0 0 21 20" fill="none" xmlns="http://www.w3.org/2000/svg">
<path d="M17.1667 10.0003V4.79116C17.1667 4.72538 17.1538 4.66024 17.1286 4.59946C17.1035 4.53869 17.0665 4.48348 17.02 4.43699L14.3967 1.81366C14.303 1.71986 14.1759 1.66711 14.0433 1.66699H4.33333C4.20072 1.66699 4.07354 1.71967 3.97977 1.81344C3.88601 1.90721 3.83333 2.03438 3.83333 2.16699V17.8337C3.83333 17.9663 3.88601 18.0934 3.97977 18.1872C4.07354 18.281 4.20072 18.3337 4.33333 18.3337H9.66666M7.16666 8.33366H13.8333M7.16666 5.00033H10.5M7.16666 11.667H9.66666M15.4617 14.117L16.295 13.2837C16.3818 13.1968 16.4848 13.1279 16.5982 13.081C16.7115 13.034 16.8331 13.0098 16.9558 13.0098C17.0786 13.0098 17.2001 13.034 17.3135 13.081C17.4269 13.1279 17.5299 13.1968 17.6167 13.2837C17.7918 13.4588 17.8901 13.6964 17.8901 13.9441C17.8901 14.1918 17.7918 14.4293 17.6167 14.6045L16.7833 15.4378L15.4617 14.1162L12.9692 16.6087C12.8445 16.7337 12.7628 16.895 12.7358 17.0695L12.5325 18.367L13.83 18.1645C14.0044 18.1375 14.1658 18.0558 14.2908 17.9312L16.7825 15.4378" stroke="#EBEBF4" stroke-width="1.5" stroke-linecap="round" stroke-linejoin="round"/>
<path d="M13.8333 1.66699V4.50033C13.8333 4.63293 13.886 4.76011 13.9798 4.85388C14.0735 4.94765 14.2007 5.00033 14.3333 5.00033H17.1667" stroke="#EBEBF4" stroke-width="1.5" stroke-linecap="round" stroke-linejoin="round"/>
</svg>
