<svg width="25" height="24" viewBox="0 0 25 24" fill="none" xmlns="http://www.w3.org/2000/svg">
<g clip-path="url(#clip0_3131_3056)">
<path d="M12.1 0.480469C5.73757 0.480469 0.579971 5.63807 0.579971 12.0005C0.579971 18.3629 5.73757 23.5205 12.1 23.5205C18.4624 23.5205 23.62 18.3629 23.62 12.0005C23.62 5.63807 18.4624 0.480469 12.1 0.480469ZM14.8288 8.44127H13.0972C12.892 8.44127 12.664 8.71127 12.664 9.07007V10.3205H14.83L14.5024 12.1037H12.664V17.4569H10.6204V12.1037H8.76637V10.3205H10.6204V9.27167C10.6204 7.76687 11.6644 6.54407 13.0972 6.54407H14.8288V8.44127Z" fill="#4C4C4C"/>
</g>
<defs>
<clipPath id="clip0_3131_3056">
<rect width="24" height="24" fill="white" transform="translate(0.0999756)"/>
</clipPath>
</defs>
</svg>
