<svg width="25" height="24" viewBox="0 0 25 24" fill="none" xmlns="http://www.w3.org/2000/svg">
<g clip-path="url(#clip0_3131_3058)">
<path d="M12.1 0.480469C5.73757 0.480469 0.579971 5.63807 0.579971 12.0005C0.579971 18.3629 5.73757 23.5205 12.1 23.5205C18.4624 23.5205 23.62 18.3629 23.62 12.0005C23.62 5.63807 18.4624 0.480469 12.1 0.480469ZM12.8884 14.7305C12.1492 14.6741 11.8396 14.3081 11.2612 13.9577C10.9432 15.6269 10.5544 17.2277 9.40237 18.0641C9.04597 15.5393 9.92317 13.6457 10.3312 11.6333C9.63637 10.4633 10.414 8.11007 11.8804 8.68847C13.684 9.40367 10.318 13.0385 12.5776 13.4933C14.9368 13.9661 15.9004 9.39887 14.4376 7.91567C12.3232 5.77127 8.28517 7.86647 8.78197 10.9361C8.90197 11.6861 9.67837 11.9141 9.09157 12.9497C7.73917 12.6497 7.33477 11.5829 7.38757 10.1609C7.47037 7.83287 9.47917 6.20207 11.4928 5.97767C14.0404 5.69447 16.4308 6.91247 16.762 9.31007C17.1328 12.0149 15.6112 14.9417 12.8884 14.7305Z" fill="#4C4C4C"/>
</g>
<defs>
<clipPath id="clip0_3131_3058">
<rect width="24" height="24" fill="white" transform="translate(0.0999756)"/>
</clipPath>
</defs>
</svg>
