<svg width="25" height="24" viewBox="0 0 25 24" fill="none" xmlns="http://www.w3.org/2000/svg">
<g clip-path="url(#clip0_3131_3052)">
<path d="M12.1 0.480469C5.73759 0.480469 0.579987 5.63807 0.579987 12.0005C0.579987 18.3629 5.73759 23.5205 12.1 23.5205C18.4624 23.5205 23.62 18.3629 23.62 12.0005C23.62 5.63807 18.4624 0.480469 12.1 0.480469ZM16.786 9.91727C16.7908 10.0157 16.792 10.1141 16.792 10.2101C16.792 13.2101 14.5108 16.6673 10.3372 16.6673C9.10394 16.6693 7.89635 16.3151 6.85959 15.6473C7.03599 15.6689 7.21719 15.6773 7.40079 15.6773C8.46399 15.6773 9.44199 15.3161 10.2184 14.7065C9.74525 14.6972 9.28679 14.5405 8.90692 14.2583C8.52705 13.9761 8.24469 13.5824 8.09919 13.1321C8.43897 13.1967 8.78901 13.1831 9.12279 13.0925C8.60925 12.9886 8.14742 12.7104 7.81564 12.3049C7.48385 11.8994 7.30252 11.3916 7.30239 10.8677V10.8401C7.60839 11.0093 7.95879 11.1125 8.33079 11.1245C7.84935 10.804 7.50853 10.3117 7.37804 9.74823C7.24755 9.18478 7.33725 8.59277 7.62879 8.09327C8.19873 8.79407 8.9095 9.36737 9.71507 9.77604C10.5206 10.1847 11.4031 10.4197 12.3052 10.4657C12.1905 9.97884 12.2399 9.46776 12.4456 9.01188C12.6513 8.55599 13.0019 8.18086 13.4429 7.94479C13.8838 7.70871 14.3904 7.62494 14.8839 7.70648C15.3773 7.78801 15.83 8.0303 16.1716 8.39567C16.6794 8.2952 17.1664 8.10893 17.6116 7.84487C17.4423 8.37063 17.088 8.81708 16.6144 9.10127C17.0642 9.04709 17.5034 8.92616 17.9176 8.74247C17.6134 9.19834 17.2301 9.59619 16.786 9.91727Z" fill="#4C4C4C"/>
</g>
<defs>
<clipPath id="clip0_3131_3052">
<rect width="24" height="24" fill="white" transform="translate(0.0999756)"/>
</clipPath>
</defs>
</svg>
