<svg width="25" height="24" viewBox="0 0 25 24" fill="none" xmlns="http://www.w3.org/2000/svg">
<g clip-path="url(#clip0_3131_3054)">
<path d="M14.0236 11.8001L11.3284 10.5425C11.0932 10.4333 10.9 10.5557 10.9 10.8161V13.1849C10.9 13.4453 11.0932 13.5677 11.3284 13.4585L14.0224 12.2009C14.2588 12.0905 14.2588 11.9105 14.0236 11.8001ZM12.1 0.480469C5.73757 0.480469 0.579971 5.63807 0.579971 12.0005C0.579971 18.3629 5.73757 23.5205 12.1 23.5205C18.4624 23.5205 23.62 18.3629 23.62 12.0005C23.62 5.63807 18.4624 0.480469 12.1 0.480469ZM12.1 16.6805C6.20317 16.6805 6.09997 16.1489 6.09997 12.0005C6.09997 7.85207 6.20317 7.32047 12.1 7.32047C17.9968 7.32047 18.1 7.85207 18.1 12.0005C18.1 16.1489 17.9968 16.6805 12.1 16.6805Z" fill="#4C4C4C"/>
</g>
<defs>
<clipPath id="clip0_3131_3054">
<rect width="24" height="24" fill="white" transform="translate(0.0999756)"/>
</clipPath>
</defs>
</svg>
