<svg width="16" height="17" viewBox="0 0 16 17" fill="none" xmlns="http://www.w3.org/2000/svg">
<path d="M1.33331 14.3333V2.66667C1.33331 2.22464 1.50891 1.80072 1.82147 1.48816C2.13403 1.17559 2.55795 1 2.99998 1H14.1666C14.2993 1 14.4264 1.05268 14.5202 1.14645C14.614 1.24021 14.6666 1.36739 14.6666 1.5V12.4283" stroke="#4C4C4C" stroke-width="1.5" stroke-linecap="round"/>
<path d="M6.33331 10.1667C6.33331 10.1667 7.08331 7.56833 8.83331 6" stroke="#4C4C4C" stroke-width="1.5" stroke-linecap="round" stroke-linejoin="round"/>
<path d="M8.66829 8.85431L8.55662 8.86431C7.87856 8.92753 7.20303 8.71993 6.67749 8.28683C6.15196 7.85372 5.81912 7.23029 5.75162 6.55264C5.71831 6.21807 5.75149 5.88021 5.84925 5.55851C5.94702 5.23681 6.10744 4.93762 6.32128 4.67816C6.53512 4.4187 6.79817 4.20409 7.09527 4.04668C7.39238 3.88927 7.71768 3.79218 8.05246 3.76098L10.5408 3.52764C10.6176 3.52044 10.694 3.54392 10.7535 3.59296C10.813 3.64199 10.8507 3.71259 10.8583 3.78931L11.0708 5.93931C11.1057 6.28869 11.0712 6.64153 10.9691 6.9775C10.8671 7.31346 10.6996 7.62592 10.4763 7.89688C10.253 8.16783 9.97825 8.39192 9.66795 8.55624C9.35765 8.72056 9.01791 8.82186 8.66829 8.85431Z" stroke="#4C4C4C" stroke-width="1.5" stroke-linecap="round" stroke-linejoin="round"/>
<path d="M3 12.6665H14.6667M3 15.9998H14.6667" stroke="#4C4C4C" stroke-width="1.5" stroke-linecap="round"/>
<path d="M2.99998 15.9998C2.55795 15.9998 2.13403 15.8242 1.82147 15.5117C1.50891 15.1991 1.33331 14.7752 1.33331 14.3332C1.33331 13.8911 1.50891 13.4672 1.82147 13.1547C2.13403 12.8421 2.55795 12.6665 2.99998 12.6665" stroke="#4C4C4C" stroke-width="1.5" stroke-linecap="round" stroke-linejoin="round"/>
</svg>
