<svg width="20" height="21" viewBox="0 0 20 21" fill="none" xmlns="http://www.w3.org/2000/svg">
<path d="M14.1667 8.8335H16.6667M16.6667 8.8335H19.1667M16.6667 8.8335V6.3335M16.6667 8.8335V11.3335M0.833374 17.1668V16.3335C0.833374 14.7864 1.44796 13.3027 2.54192 12.2087C3.63588 11.1147 5.11961 10.5002 6.66671 10.5002M6.66671 10.5002C8.2138 10.5002 9.69753 11.1147 10.7915 12.2087C11.8855 13.3027 12.5 14.7864 12.5 16.3335V17.1668M6.66671 10.5002C7.55076 10.5002 8.39861 10.149 9.02373 9.52385C9.64885 8.89873 10 8.05088 10 7.16683C10 6.28277 9.64885 5.43493 9.02373 4.80981C8.39861 4.18469 7.55076 3.8335 6.66671 3.8335C5.78265 3.8335 4.93481 4.18469 4.30968 4.80981C3.68456 5.43493 3.33337 6.28277 3.33337 7.16683C3.33337 8.05088 3.68456 8.89873 4.30968 9.52385C4.93481 10.149 5.78265 10.5002 6.66671 10.5002Z" stroke="#063062" stroke-width="1.5" stroke-linecap="round" stroke-linejoin="round"/>
</svg>
