<svg width="65" height="64" viewBox="0 0 65 64" fill="none" xmlns="http://www.w3.org/2000/svg">
<path d="M0.5 16C0.5 7.16344 7.66344 0 16.5 0H48.5C57.3366 0 64.5 7.16344 64.5 16V48C64.5 56.8366 57.3366 64 48.5 64H16.5C7.66344 64 0.5 56.8366 0.5 48V16Z" fill="#EBEBF4"/>
<path d="M42.5 28H48.5M48.5 28H54.5M48.5 28V22M48.5 28V34M10.5 48V46C10.5 42.287 11.975 38.726 14.6005 36.1005C17.226 33.475 20.787 32 24.5 32M24.5 32C28.213 32 31.774 33.475 34.3995 36.1005C37.025 38.726 38.5 42.287 38.5 46V48M24.5 32C26.6217 32 28.6566 31.1571 30.1569 29.6569C31.6571 28.1566 32.5 26.1217 32.5 24C32.5 21.8783 31.6571 19.8434 30.1569 18.3431C28.6566 16.8429 26.6217 16 24.5 16C22.3783 16 20.3434 16.8429 18.8431 18.3431C17.3429 19.8434 16.5 21.8783 16.5 24C16.5 26.1217 17.3429 28.1566 18.8431 29.6569C20.3434 31.1571 22.3783 32 24.5 32Z" stroke="#3B368D" stroke-width="3" stroke-linecap="round" stroke-linejoin="round"/>
</svg>
